#!OML:ASF E:\CV Data\Top Level 1\Subject 1\Session 1\player.ASF
:FULLY-SPECIFIED
:DEGREES
1278
root -3.16247 17.3397 2.44869 4.22627 -14.2444 -5.18508
lowerback 5.90298 0.0682021 0.627815
upperback -3.68765 0.376776 3.59431
thorax -7.20541 0.250533 3.38099
lowerneck -18.5501 -7.57368 -12.2707
upperneck 26.5906 -9.49402 8.06112
head 12.9931 -4.46246 3.53923
rclavicle -1.96921e-014 -5.64548e-014
rhumerus 329.218 343.959 647.547
rradius 20.9519
rwrist -5.35705
rhand -21.1363 5.08689
rfingers 7.12502
rthumb 5.24271 -24.8283
lclavicle -1.96921e-014 -5.64548e-014
lhumerus -35.6117 13.7867 77.8
lradius 26.3365
lwrist -10.6397
lhand -11.5813 10.4172
lfingers 7.12502
lthumb 14.4605 39.8933
rfemur -17.0653 7.72146 24.0562
rtibia 38.5399
rfoot -23.1221 -6.76252
rtoes 3.7954
lfemur -12.9593 3.27595 -16.4472
ltibia 35.0252
lfoot -19.586 7.4689
ltoes 2.21809
1279
root -3.15961 17.3396 2.45283 4.20022 -14.3027 -5.19036
lowerback 5.81722 0.0876033 0.627965
upperback -3.74781 0.400546 3.56616
thorax -7.22089 0.261889 3.34852
lowerneck -18.4542 -7.60529 -12.3443
upperneck 26.725 -9.51856 7.98907
head 13.032 -4.49379 3.52281
rclavicle -1.63997e-014 -9.93923e-015
rhumerus 330.087 345.056 646.568
rradius 21.5353
rwrist -6.39326
rhand -21.3301 5.32644
rfingers 7.12502
rthumb 5.05563 -24.5933
lclavicle -1.63997e-014 -9.93923e-015
lhumerus -35.6658 13.6499 77.9864
lradius 26.2435
lwrist -10.8599
lhand -11.1411 10.3046
lfingers 7.12502
lthumb 14.8846 39.7499
rfemur -17.0161 7.70425 24.0425
rtibia 38.5256
rfoot -23.1338 -6.65501
rtoes 3.82726
lfemur -12.8957 3.28498 -16.4631
ltibia 35.0089
lfoot -19.5811 7.54006
ltoes 2.20109
1280
root -3.15716 17.3394 2.45728 4.17447 -14.3446 -5.1882
lowerback 5.73565 0.108383 0.621014
upperback -3.81 0.425459 3.53368
thorax -7.24101 0.274084 3.31546
lowerneck -18.3548 -7.64887 -12.4178
upperneck 26.8554 -9.5648 7.92918
head 13.0721 -4.53325 3.50706
rclavicle 1.04735e-014 5.96354e-015
rhumerus 330.927 346.107 645.654
rradius 22.1062
rwrist -7.37079
rhand -21.5315 5.585
rfingers 7.12502
rthumb 4.86119 -24.3392
lclavicle 1.04735e-014 5.96354e-015
lhumerus -35.7108 13.4829 78.1884
lradius 26.1661
lwrist -11.1209
lhand -10.759 10.099
lfingers 7.12502
lthumb 15.2527 39.5167
rfemur -16.9697 7.69104 24.0243
rtibia 38.5175
rfoot -23.1484 -6.5696
rtoes 3.86405
lfemur -12.8346 3.29346 -16.4828
ltibia 34.9897
lfoot -19.5785 7.59195
ltoes 2.19062
1281
root -3.15498 17.3392 2.4618 4.15205 -14.3803 -5.18083
lowerback 5.64996 0.131938 0.607109
upperback -3.86951 0.453202 3.49977
thorax -7.25603 0.287927 3.28444
lowerneck -18.2557 -7.70346 -12.4929
upperneck 26.9752 -9.62966 7.88109
head 13.1113 -4.57949 3.49246
rclavicle 1.63997e-015 -1.51076e-014
rhumerus 331.746 347.129 644.796
rradius 22.6726
rwrist -8.29359
rhand -21.7457 5.81889
rfingers 7.12502
rthumb 4.65433 -24.11
lclavicle 1.63997e-015 -1.51076e-014
lhumerus -35.7448 13.2921 78.4097
lradius 26.1094
lwrist -11.4005
lhand -10.4662 9.79058
lfingers 7.12502
lthumb 15.5346 39.1866
rfemur -16.9305 7.68532 24.0016
rtibia 38.5148
rfoot -23.1639 -6.4986
rtoes 3.90492
lfemur -12.7791 3.3076 -16.5058
ltibia 34.9687
lfoot -19.5759 7.63016
ltoes 2.17883
1282
root -3.15304 17.339 2.46657 4.13041 -14.4094 -5.16876
lowerback 5.55929 0.158708 0.589039
upperback -3.92608 0.484481 3.46258
thorax -7.26516 0.303572 3.25183
lowerneck -18.1452 -7.76947 -12.568
upperneck 27.0782 -9.71469 7.84254
head 13.1444 -4.63359 3.47776
rclavicle -9.93923e-017 2.0276e-014
rhumerus 332.539 348.107 643.995
rradius 23.2329
rwrist -9.14008
rhand -21.9638 6.02768
rfingers 7.12502
rthumb 4.44371 -23.9057
lclavicle -9.93923e-017 2.0276e-014
lhumerus -35.7708 13.0727 78.6481
lradius 26.0763
lwrist -11.6824
lhand -10.1822 9.48074
lfingers 7.12502
lthumb 15.8081 38.8553
rfemur -16.8945 7.68912 23.9752
rtibia 38.5167
rfoot -23.1802 -6.4405
rtoes 3.9564
lfemur -12.7252 3.32077 -16.5325
ltibia 34.9457
lfoot -19.5734 7.66181
ltoes 2.17137
1283
root -3.15117 17.3389 2.47172 4.10981 -14.43 -5.15518
lowerback 5.46397 0.185306 0.572749
upperback -3.98303 0.515528 3.4243
thorax -7.27193 0.318965 3.21715
lowerneck -18.0031 -7.84357 -12.655
upperneck 27.1573 -9.81607 7.82173
head 13.1652 -4.69463 3.46931
rclavicle -1.963e-014 -5.96354e-015
rhumerus 333.301 349.064 643.243
rradius 23.7916
rwrist -9.92306
rhand -22.2068 6.16971
rfingers 7.12502
rthumb 4.20908 -23.7684
lclavicle -1.963e-014 -5.96354e-015
lhumerus -35.8023 12.8296 78.8999
lradius 26.0734
lwrist -11.9526
lhand -9.8896 9.19876
lfingers 7.12502
lthumb 16.09 38.5508
rfemur -16.8599 7.69554 23.9481
rtibia 38.5221
rfoot -23.199 -6.39404
rtoes 4.00061
lfemur -12.6722 3.3292 -16.5605
ltibia 34.9209
lfoot -19.5709 7.69001
ltoes 2.16625
